<?xml version="1.0" encoding="utf-8"?>
<!-- Generator: Adobe Illustrator 15.0.0, SVG Export Plug-In . SVG Version: 6.00 Build 0)  -->
<!DOCTYPE svg PUBLIC "-//W3C//DTD SVG 1.1//EN" "http://www.w3.org/Graphics/SVG/1.1/DTD/svg11.dtd">
<svg version="1.1" id="icons" xmlns="http://www.w3.org/2000/svg" xmlns:xlink="http://www.w3.org/1999/xlink" x="0px" y="0px"
	 width="49.833px" height="187.583px" viewBox="0 0 49.833 187.583" enable-background="new 0 0 49.833 187.583"
	 xml:space="preserve">
<g>
	<rect x="5.177" y="5.095" fill="#FFFFFF" width="39.802" height="38.447"/>
	<g id="post-linkedin">
		<path fill="#23304D" d="M42.481,2.966H7.505c-2.405,0-4.372,1.967-4.372,4.372v34.976c0,2.404,1.967,4.372,4.372,4.372h34.976
			c2.404,0,4.372-1.968,4.372-4.372V7.338C46.853,4.934,44.885,2.966,42.481,2.966z M16.25,40.128H9.691V20.454h6.558L16.25,40.128
			L16.25,40.128z M12.97,16.738c-2.186,0-3.935-1.749-3.935-3.935s1.749-3.935,3.935-3.935c2.186,0,3.935,1.749,3.935,3.935
			S15.156,16.738,12.97,16.738z M40.295,40.128h-6.56V28.542c0-1.749-1.53-3.279-3.278-3.279s-3.278,1.53-3.278,3.279v11.585h-6.558
			V20.454h6.558v2.623c1.093-1.749,3.497-3.06,5.465-3.06c4.153,0,7.651,3.498,7.651,7.651V40.128z"/>
	</g>
</g>
<path fill="#23304D" d="M42.565,48.914H7.59c-2.405,0-4.372,1.968-4.372,4.372v34.976c0,2.403,1.967,4.372,4.372,4.372h34.975
	c2.404,0,4.373-1.969,4.373-4.372V53.286C46.938,50.882,44.969,48.914,42.565,48.914z"/>
<path fill="#23304D" d="M42.565,95.039H7.59c-2.405,0-4.372,1.967-4.372,4.371v34.978c0,2.403,1.967,4.37,4.372,4.37h34.975
	c2.404,0,4.373-1.967,4.373-4.37V99.41C46.938,97.005,44.969,95.039,42.565,95.039z"/>
<path fill="#23304D" d="M42.573,141.167H7.597c-2.405,0-4.372,1.967-4.372,4.371v34.978c0,2.403,1.967,4.37,4.372,4.37h34.976
	c2.404,0,4.373-1.967,4.373-4.37v-34.978C46.946,143.134,44.977,141.167,42.573,141.167z"/>
<path fill="#FFFFFF" d="M40.586,62.153c-1.142,0.507-2.366,0.849-3.654,1.002c1.314-0.788,2.324-2.035,2.799-3.521
	c-1.23,0.729-2.592,1.259-4.041,1.544c-1.162-1.237-2.814-2.01-4.646-2.01c-3.514,0-6.362,2.849-6.362,6.364
	c0,0.499,0.056,0.984,0.165,1.45c-5.289-0.266-9.979-2.799-13.117-6.649c-0.548,0.94-0.862,2.033-0.862,3.2
	c0,2.208,1.124,4.156,2.831,5.297c-1.043-0.033-2.024-0.32-2.882-0.796c-0.001,0.027-0.001,0.054-0.001,0.08
	c0,3.083,2.194,5.656,5.105,6.241c-0.534,0.145-1.096,0.223-1.676,0.223c-0.41,0-0.809-0.039-1.198-0.113
	c0.811,2.527,3.161,4.369,5.945,4.42c-2.178,1.707-4.922,2.725-7.904,2.725c-0.514,0-1.021-0.029-1.519-0.089
	c2.817,1.806,6.162,2.858,9.756,2.858c11.706,0,18.107-9.696,18.107-18.107c0-0.276-0.007-0.55-0.019-0.823
	C38.656,64.551,39.735,63.43,40.586,62.153z"/>
<path id="Flickr" fill="#FFFFFF" d="M40.321,116.9c0,3.74-3.058,6.771-6.832,6.771c-3.773,0-6.833-3.031-6.833-6.771
	c0-3.744,3.06-6.777,6.833-6.777C37.263,110.123,40.321,113.156,40.321,116.9z M16.667,110.123c-3.773,0-6.832,3.033-6.832,6.777
	c0,3.74,3.059,6.771,6.832,6.771s6.832-3.031,6.832-6.771C23.499,113.156,20.44,110.123,16.667,110.123z"/>
<g>
	<path fill="#FFFFFF" d="M32.547,146.372H17.622c-5.068,0-9.192,4.124-9.192,9.192v14.927c0,5.068,4.124,9.192,9.192,9.192h14.925
		c5.069,0,9.193-4.124,9.193-9.192v-14.927C41.741,150.496,37.617,146.372,32.547,146.372z M38.786,170.491
		c0,3.439-2.798,6.237-6.237,6.237H17.622c-3.438,0-6.237-2.798-6.237-6.237v-14.927c0-3.438,2.799-6.237,6.237-6.237h14.925
		c3.439,0,6.238,2.799,6.238,6.237V170.491L38.786,170.491z"/>
	<path fill="#FFFFFF" d="M25.085,154.445c-4.732,0-8.583,3.849-8.583,8.583c0,4.733,3.851,8.583,8.583,8.583
		c4.734,0,8.583-3.85,8.583-8.583C33.668,158.293,29.819,154.445,25.085,154.445z M25.085,168.655c-3.103,0-5.627-2.523-5.627-5.627
		s2.524-5.628,5.627-5.628s5.627,2.524,5.627,5.628S28.188,168.655,25.085,168.655z"/>
	<path fill="#FFFFFF" d="M34.029,151.937c-0.57,0-1.129,0.231-1.531,0.635c-0.404,0.402-0.636,0.963-0.636,1.534
		c0,0.569,0.231,1.128,0.636,1.532c0.402,0.402,0.961,0.635,1.531,0.635s1.129-0.232,1.532-0.635
		c0.403-0.404,0.635-0.964,0.635-1.532c0-0.571-0.231-1.132-0.635-1.534C35.159,152.168,34.599,151.937,34.029,151.937z"/>
</g>
</svg>
