<?xml version="1.0" encoding="utf-8"?>
<!-- Generator: Adobe Illustrator 15.0.0, SVG Export Plug-In . SVG Version: 6.00 Build 0)  -->
<!DOCTYPE svg PUBLIC "-//W3C//DTD SVG 1.1//EN" "http://www.w3.org/Graphics/SVG/1.1/DTD/svg11.dtd">
<svg version="1.1" id="Слой_1" xmlns="http://www.w3.org/2000/svg" xmlns:xlink="http://www.w3.org/1999/xlink" x="0px" y="0px"
	 width="144.666px" height="144.666px" viewBox="0 0 144.666 144.666" enable-background="new 0 0 144.666 144.666"
	 xml:space="preserve">
<circle fill="#E8453E" cx="72.333" cy="72.334" r="72.333"/>
<g>
	<path fill="#FFFFFF" d="M89.712,47.978c0,0-24.782,0-33.291,0c-5.465,0-10.396,6.257-13.228,10.731
		c-1.508,2.391-0.654,3.06,1.934,1.934c2.978-1.304,7.818-2.022,12.975-2.401v33.885c0,2.522,2.044,4.567,4.566,4.567
		c2.521,0,4.566-2.045,4.566-4.567v-34.25c2.998-0.037,5.786-0.003,8.025,0.05v34.201c0,2.522,2.044,4.567,4.566,4.567
		c2.521,0,4.565-2.045,4.565-4.567v-34.01c2.233,0,4.701,0,5.197,0c0.944,0,4.644-0.594,4.644-5.023
		C94.232,47.643,89.712,47.978,89.712,47.978z"/>
	<circle fill="#FFFFFF" cx="97.613" cy="92.09" r="4.603"/>
</g>
</svg>
